<svg width="17" height="22" viewBox="0 0 17 22" fill="none" xmlns="http://www.w3.org/2000/svg">
<path d="M1.20817 0.583336H15.7915C16.0678 0.583336 16.3327 0.693083 16.5281 0.888433C16.7234 1.08378 16.8332 1.34874 16.8332 1.625V20.375C16.8332 20.6513 16.7234 20.9162 16.5281 21.1116C16.3327 21.3069 16.0678 21.4167 15.7915 21.4167H1.20817C0.931903 21.4167 0.666952 21.3069 0.471601 21.1116C0.276251 20.9162 0.166504 20.6513 0.166504 20.375V1.625C0.166504 1.34874 0.276251 1.08378 0.471601 0.888433C0.666952 0.693083 0.931903 0.583336 1.20817 0.583336ZM5.37484 9.95834V6.83334L0.166504 11L5.37484 15.1667V12.0417H11.6248V9.95834H5.37484Z" fill="#4461F2"/>
</svg>
