<svg width="392" height="102" viewBox="0 0 392 102" fill="none" xmlns="http://www.w3.org/2000/svg">
<path d="M1.76136 48V33.4545H10.5398V35.017H3.52273V39.9318H10.0852V41.4943H3.52273V46.4375H10.6534V48H1.76136ZM15.1634 41.4375V48H13.4872V37.0909H15.1065V38.7955H15.2486C15.5043 38.2415 15.8925 37.7964 16.4134 37.4602C16.9342 37.1193 17.6065 36.9489 18.4304 36.9489C19.169 36.9489 19.8153 37.1004 20.3693 37.4034C20.9233 37.7017 21.3542 38.1562 21.6619 38.767C21.9697 39.3731 22.1236 40.1402 22.1236 41.0682V48H20.4474V41.1818C20.4474 40.3248 20.2249 39.6572 19.7798 39.179C19.3348 38.696 18.724 38.4545 17.9474 38.4545C17.4124 38.4545 16.9342 38.5705 16.5128 38.8026C16.0961 39.0346 15.767 39.3731 15.5256 39.8182C15.2841 40.2633 15.1634 40.803 15.1634 41.4375ZM29.5898 52.3182C28.7802 52.3182 28.0842 52.214 27.5018 52.0057C26.9194 51.8021 26.4341 51.5322 26.0458 51.196C25.6623 50.8646 25.3569 50.5095 25.1296 50.1307L26.4648 49.1932C26.6164 49.392 26.8081 49.6193 27.0401 49.875C27.2721 50.1354 27.5894 50.3603 27.9918 50.5497C28.399 50.7438 28.9317 50.8409 29.5898 50.8409C30.4705 50.8409 31.1973 50.6278 31.7702 50.2017C32.3432 49.7756 32.6296 49.108 32.6296 48.1989V45.983H32.4876C32.3645 46.1818 32.1893 46.428 31.962 46.7216C31.7395 47.0104 31.4175 47.2685 30.9961 47.4957C30.5794 47.7183 30.016 47.8295 29.3058 47.8295C28.4251 47.8295 27.6344 47.6212 26.9336 47.2045C26.2376 46.7879 25.686 46.1818 25.2788 45.3864C24.8763 44.5909 24.6751 43.625 24.6751 42.4886C24.6751 41.3712 24.8716 40.3982 25.2646 39.5696C25.6576 38.7363 26.2044 38.0923 26.9052 37.6378C27.6059 37.1785 28.4156 36.9489 29.3342 36.9489C30.0444 36.9489 30.6078 37.0672 31.0245 37.304C31.4459 37.536 31.7679 37.8011 31.9904 38.0994C32.2177 38.393 32.3929 38.6345 32.516 38.8239H32.6864V37.0909H34.3058V48.3125C34.3058 49.25 34.0927 50.0123 33.6665 50.5994C33.2451 51.1913 32.677 51.6245 31.962 51.8991C31.2518 52.1785 30.4611 52.3182 29.5898 52.3182ZM29.533 46.3239C30.2054 46.3239 30.7736 46.17 31.2376 45.8622C31.7016 45.5545 32.0543 45.1117 32.2958 44.5341C32.5373 43.9564 32.658 43.2652 32.658 42.4602C32.658 41.6742 32.5397 40.9806 32.3029 40.3793C32.0662 39.7779 31.7158 39.3068 31.2518 38.9659C30.7878 38.625 30.2148 38.4545 29.533 38.4545C28.8228 38.4545 28.2309 38.6345 27.7575 38.9943C27.2887 39.3542 26.936 39.8371 26.6992 40.4432C26.4672 41.0492 26.3512 41.7216 26.3512 42.4602C26.3512 43.2178 26.4696 43.8878 26.7063 44.4702C26.9478 45.0478 27.3029 45.5024 27.7717 45.8338C28.2451 46.1605 28.8323 46.3239 29.533 46.3239ZM39.0501 33.4545V48H37.3739V33.4545H39.0501ZM42.12 48V37.0909H43.7962V48H42.12ZM42.9723 35.2727C42.6456 35.2727 42.3639 35.1615 42.1271 34.9389C41.8951 34.7164 41.7791 34.4489 41.7791 34.1364C41.7791 33.8239 41.8951 33.5563 42.1271 33.3338C42.3639 33.1113 42.6456 33 42.9723 33C43.299 33 43.5784 33.1113 43.8104 33.3338C44.0471 33.5563 44.1655 33.8239 44.1655 34.1364C44.1655 34.4489 44.0471 34.7164 43.8104 34.9389C43.5784 35.1615 43.299 35.2727 42.9723 35.2727ZM54.5934 39.5341L53.0877 39.9602C52.993 39.7093 52.8533 39.4654 52.6687 39.2287C52.4888 38.9872 52.2425 38.7884 51.93 38.6321C51.6175 38.4759 51.2174 38.3977 50.7298 38.3977C50.0621 38.3977 49.5058 38.5516 49.0607 38.8594C48.6204 39.1624 48.4002 39.5483 48.4002 40.017C48.4002 40.4337 48.5517 40.7628 48.8548 41.0043C49.1578 41.2457 49.6313 41.447 50.2752 41.608L51.8945 42.0057C52.8699 42.2424 53.5967 42.6046 54.0749 43.0923C54.5531 43.5753 54.7923 44.1979 54.7923 44.9602C54.7923 45.5852 54.6123 46.1439 54.2525 46.6364C53.8974 47.1288 53.4002 47.517 52.761 47.8011C52.1218 48.0852 51.3784 48.2273 50.5309 48.2273C49.4182 48.2273 48.4973 47.9858 47.7681 47.5028C47.0389 47.0199 46.5773 46.3144 46.3832 45.3864L47.9741 44.9886C48.1256 45.5758 48.4121 46.0161 48.8335 46.3097C49.2596 46.6032 49.8159 46.75 50.5025 46.75C51.2837 46.75 51.904 46.5843 52.3633 46.2528C52.8273 45.9167 53.0593 45.5142 53.0593 45.0455C53.0593 44.6667 52.9267 44.3494 52.6616 44.0938C52.3964 43.8333 51.9892 43.6392 51.44 43.5114L49.6218 43.0852C48.6228 42.8485 47.8888 42.4815 47.4201 41.9844C46.9561 41.4825 46.7241 40.8551 46.7241 40.1023C46.7241 39.4867 46.8969 38.9422 47.2425 38.4688C47.5929 37.9953 48.0688 37.6236 48.6701 37.3537C49.2762 37.0838 49.9627 36.9489 50.7298 36.9489C51.8093 36.9489 52.6568 37.1856 53.2724 37.6591C53.8926 38.1326 54.333 38.7576 54.5934 39.5341ZM58.9915 41.4375V48H57.3153V33.4545H58.9915V38.7955H59.1335C59.3892 38.232 59.7727 37.7846 60.2841 37.4531C60.8002 37.117 61.4867 36.9489 62.3438 36.9489C63.0871 36.9489 63.7382 37.098 64.2969 37.3963C64.8556 37.6899 65.2888 38.142 65.5966 38.7528C65.9091 39.3589 66.0653 40.1307 66.0653 41.0682V48H64.3892V41.1818C64.3892 40.3153 64.1643 39.6454 63.7145 39.1719C63.2694 38.6937 62.6515 38.4545 61.8608 38.4545C61.3116 38.4545 60.8191 38.5705 60.3835 38.8026C59.9527 39.0346 59.6117 39.3731 59.3608 39.8182C59.1146 40.2633 58.9915 40.803 58.9915 41.4375Z" fill="black"/>
<path d="M126.155 37.6378C126.098 37.0649 125.854 36.6198 125.423 36.3026C124.992 35.9853 124.408 35.8267 123.669 35.8267C123.167 35.8267 122.743 35.8977 122.398 36.0398C122.052 36.1771 121.787 36.3688 121.602 36.6151C121.422 36.8613 121.332 37.1406 121.332 37.4531C121.323 37.7135 121.377 37.9408 121.496 38.1349C121.619 38.3291 121.787 38.4972 122 38.6392C122.213 38.7765 122.459 38.8973 122.739 39.0014C123.018 39.1009 123.316 39.1861 123.634 39.2571L124.94 39.5696C125.575 39.7116 126.157 39.901 126.688 40.1378C127.218 40.3745 127.677 40.6657 128.065 41.0114C128.454 41.357 128.754 41.7642 128.967 42.233C129.185 42.7017 129.296 43.2391 129.301 43.8452C129.296 44.7353 129.069 45.5071 128.619 46.1605C128.174 46.8092 127.53 47.3134 126.688 47.6733C125.849 48.0284 124.839 48.206 123.655 48.206C122.481 48.206 121.458 48.026 120.587 47.6662C119.72 47.3063 119.043 46.7737 118.555 46.0682C118.072 45.358 117.819 44.4796 117.795 43.4332H120.771C120.804 43.9209 120.944 44.3281 121.19 44.6548C121.441 44.9768 121.775 45.2206 122.192 45.3864C122.613 45.5473 123.089 45.6278 123.619 45.6278C124.14 45.6278 124.592 45.5521 124.976 45.4006C125.364 45.2491 125.665 45.0384 125.878 44.7685C126.091 44.4986 126.197 44.1884 126.197 43.8381C126.197 43.5114 126.1 43.2367 125.906 43.0142C125.717 42.7917 125.438 42.6023 125.068 42.446C124.704 42.2898 124.256 42.1477 123.726 42.0199L122.142 41.6222C120.916 41.3239 119.947 40.8575 119.237 40.223C118.527 39.5885 118.174 38.7339 118.179 37.6591C118.174 36.7784 118.409 36.009 118.882 35.3509C119.36 34.6927 120.016 34.179 120.849 33.8097C121.683 33.4403 122.63 33.2557 123.69 33.2557C124.77 33.2557 125.712 33.4403 126.517 33.8097C127.327 34.179 127.956 34.6927 128.406 35.3509C128.856 36.009 129.088 36.7713 129.102 37.6378H126.155ZM131.313 48V37.0909H134.338V48H131.313ZM132.833 35.6847C132.383 35.6847 131.997 35.5355 131.675 35.2372C131.358 34.9342 131.199 34.572 131.199 34.1506C131.199 33.7339 131.358 33.3764 131.675 33.0781C131.997 32.7751 132.383 32.6236 132.833 32.6236C133.283 32.6236 133.666 32.7751 133.983 33.0781C134.305 33.3764 134.466 33.7339 134.466 34.1506C134.466 34.572 134.305 34.9342 133.983 35.2372C133.666 35.5355 133.283 35.6847 132.833 35.6847ZM141.677 52.3182C140.697 52.3182 139.856 52.1832 139.156 51.9134C138.46 51.6482 137.906 51.286 137.494 50.8267C137.082 50.3674 136.814 49.8513 136.691 49.2784L139.489 48.902C139.575 49.1198 139.71 49.3234 139.894 49.5128C140.079 49.7022 140.323 49.8537 140.626 49.9673C140.933 50.0857 141.308 50.1449 141.748 50.1449C142.406 50.1449 142.948 49.9839 143.374 49.6619C143.805 49.3447 144.021 48.812 144.021 48.0639V46.0682H143.893C143.76 46.3712 143.561 46.6577 143.296 46.9276C143.031 47.1974 142.69 47.4176 142.273 47.5881C141.857 47.7585 141.36 47.8438 140.782 47.8438C139.963 47.8438 139.217 47.6544 138.545 47.2756C137.877 46.892 137.344 46.3073 136.947 45.5213C136.554 44.7306 136.357 43.7315 136.357 42.5241C136.357 41.2884 136.558 40.2562 136.961 39.4276C137.363 38.599 137.898 37.9787 138.566 37.5668C139.238 37.1548 139.975 36.9489 140.775 36.9489C141.386 36.9489 141.897 37.053 142.309 37.2614C142.721 37.465 143.052 37.7206 143.303 38.0284C143.559 38.3314 143.755 38.6297 143.893 38.9233H144.006V37.0909H147.011V48.1065C147.011 49.0346 146.783 49.8111 146.329 50.4361C145.874 51.0611 145.245 51.5298 144.44 51.8423C143.639 52.1596 142.719 52.3182 141.677 52.3182ZM141.741 45.571C142.228 45.571 142.64 45.4503 142.977 45.2088C143.317 44.9626 143.578 44.6122 143.758 44.1577C143.942 43.6984 144.035 43.1491 144.035 42.5099C144.035 41.8707 143.945 41.3168 143.765 40.848C143.585 40.3745 143.325 40.0076 142.984 39.7472C142.643 39.4867 142.228 39.3565 141.741 39.3565C141.244 39.3565 140.825 39.4915 140.484 39.7614C140.143 40.0265 139.885 40.3958 139.71 40.8693C139.534 41.3428 139.447 41.8897 139.447 42.5099C139.447 43.1397 139.534 43.6842 139.71 44.1435C139.889 44.598 140.147 44.9508 140.484 45.2017C140.825 45.4479 141.244 45.571 141.741 45.571ZM152.444 41.6932V48H149.418V37.0909H152.302V39.0156H152.43C152.671 38.3812 153.076 37.8793 153.644 37.5099C154.212 37.1359 154.901 36.9489 155.711 36.9489C156.469 36.9489 157.129 37.1146 157.692 37.446C158.256 37.7775 158.694 38.2509 159.006 38.8665C159.319 39.4773 159.475 40.2064 159.475 41.054V48H156.45V41.5938C156.454 40.9261 156.284 40.4053 155.938 40.0312C155.593 39.6525 155.117 39.4631 154.511 39.4631C154.103 39.4631 153.744 39.5507 153.431 39.7259C153.123 39.901 152.882 40.1567 152.707 40.4929C152.536 40.8243 152.449 41.2244 152.444 41.6932ZM166.489 48V37.0909H169.514V48H166.489ZM168.009 35.6847C167.559 35.6847 167.173 35.5355 166.851 35.2372C166.534 34.9342 166.375 34.572 166.375 34.1506C166.375 33.7339 166.534 33.3764 166.851 33.0781C167.173 32.7751 167.559 32.6236 168.009 32.6236C168.458 32.6236 168.842 32.7751 169.159 33.0781C169.481 33.3764 169.642 33.7339 169.642 34.1506C169.642 34.572 169.481 34.9342 169.159 35.2372C168.842 35.5355 168.458 35.6847 168.009 35.6847ZM174.963 41.6932V48H171.938V37.0909H174.821V39.0156H174.949C175.191 38.3812 175.596 37.8793 176.164 37.5099C176.732 37.1359 177.421 36.9489 178.23 36.9489C178.988 36.9489 179.649 37.1146 180.212 37.446C180.775 37.7775 181.213 38.2509 181.526 38.8665C181.838 39.4773 181.995 40.2064 181.995 41.054V48H178.969V41.5938C178.974 40.9261 178.803 40.4053 178.458 40.0312C178.112 39.6525 177.636 39.4631 177.03 39.4631C176.623 39.4631 176.263 39.5507 175.951 39.7259C175.643 39.901 175.401 40.1567 175.226 40.4929C175.056 40.8243 174.968 41.2244 174.963 41.6932Z" fill="#4461F2"/>
<g filter="url(#filter0_d_1_410)">
<rect x="233" y="20" width="129" height="42" rx="15" fill="white" shape-rendering="crispEdges"/>
<rect x="233.5" y="20.5" width="128" height="41" rx="14.5" stroke="#E0E0E9" shape-rendering="crispEdges"/>
<path d="M259.261 48V33.4545H264.176C265.313 33.4545 266.245 33.6487 266.974 34.0369C267.704 34.4205 268.243 34.9484 268.594 35.6207C268.944 36.2931 269.119 37.0578 269.119 37.9148C269.119 38.7718 268.944 39.5317 268.594 40.1946C268.243 40.8575 267.706 41.3783 266.982 41.7571C266.257 42.1312 265.331 42.3182 264.205 42.3182H260.227V40.7273H264.148C264.924 40.7273 265.549 40.6136 266.023 40.3864C266.501 40.1591 266.847 39.8371 267.06 39.4205C267.277 38.9991 267.386 38.4972 267.386 37.9148C267.386 37.3324 267.277 36.8234 267.06 36.3878C266.842 35.9522 266.494 35.616 266.016 35.3793C265.537 35.1378 264.905 35.017 264.119 35.017H261.023V48H259.261ZM266.108 41.4659L269.688 48H267.642L264.119 41.4659H266.108ZM276.284 48.2273C275.233 48.2273 274.326 47.9953 273.564 47.5312C272.806 47.0625 272.221 46.4091 271.809 45.571C271.402 44.7282 271.199 43.7481 271.199 42.6307C271.199 41.5133 271.402 40.5284 271.809 39.6761C272.221 38.8191 272.794 38.1515 273.528 37.6733C274.267 37.1903 275.128 36.9489 276.113 36.9489C276.681 36.9489 277.243 37.0436 277.797 37.233C278.35 37.4223 278.855 37.7301 279.309 38.1562C279.764 38.5777 280.126 39.1364 280.396 39.8324C280.666 40.5284 280.801 41.3854 280.801 42.4034V43.1136H272.392V41.6648H279.096C279.096 41.0492 278.973 40.5 278.727 40.017C278.485 39.5341 278.14 39.1529 277.69 38.8736C277.245 38.5942 276.719 38.4545 276.113 38.4545C275.446 38.4545 274.868 38.6203 274.38 38.9517C273.897 39.2784 273.526 39.7045 273.265 40.2301C273.005 40.7557 272.875 41.3191 272.875 41.9205V42.8864C272.875 43.7102 273.017 44.4086 273.301 44.9815C273.59 45.5497 273.99 45.983 274.501 46.2812C275.012 46.5748 275.607 46.7216 276.284 46.7216C276.724 46.7216 277.122 46.66 277.477 46.5369C277.837 46.4091 278.147 46.2197 278.407 45.9688C278.668 45.7131 278.869 45.3958 279.011 45.017L280.63 45.4716C280.46 46.0208 280.173 46.5038 279.771 46.9205C279.368 47.3324 278.871 47.6544 278.279 47.8864C277.688 48.1136 277.022 48.2273 276.284 48.2273ZM287.754 52.3182C286.944 52.3182 286.248 52.214 285.666 52.0057C285.083 51.8021 284.598 51.5322 284.21 51.196C283.826 50.8646 283.521 50.5095 283.294 50.1307L284.629 49.1932C284.78 49.392 284.972 49.6193 285.204 49.875C285.436 50.1354 285.753 50.3603 286.156 50.5497C286.563 50.7438 287.096 50.8409 287.754 50.8409C288.635 50.8409 289.361 50.6278 289.934 50.2017C290.507 49.7756 290.794 49.108 290.794 48.1989V45.983H290.652C290.529 46.1818 290.353 46.428 290.126 46.7216C289.904 47.0104 289.582 47.2685 289.16 47.4957C288.743 47.7183 288.18 47.8295 287.47 47.8295C286.589 47.8295 285.798 47.6212 285.098 47.2045C284.402 46.7879 283.85 46.1818 283.443 45.3864C283.04 44.5909 282.839 43.625 282.839 42.4886C282.839 41.3712 283.036 40.3982 283.429 39.5696C283.822 38.7363 284.368 38.0923 285.069 37.6378C285.77 37.1785 286.58 36.9489 287.498 36.9489C288.208 36.9489 288.772 37.0672 289.189 37.304C289.61 37.536 289.932 37.8011 290.154 38.0994C290.382 38.393 290.557 38.6345 290.68 38.8239H290.85V37.0909H292.47V48.3125C292.47 49.25 292.257 50.0123 291.831 50.5994C291.409 51.1913 290.841 51.6245 290.126 51.8991C289.416 52.1785 288.625 52.3182 287.754 52.3182ZM287.697 46.3239C288.369 46.3239 288.938 46.17 289.402 45.8622C289.866 45.5545 290.218 45.1117 290.46 44.5341C290.701 43.9564 290.822 43.2652 290.822 42.4602C290.822 41.6742 290.704 40.9806 290.467 40.3793C290.23 39.7779 289.88 39.3068 289.416 38.9659C288.952 38.625 288.379 38.4545 287.697 38.4545C286.987 38.4545 286.395 38.6345 285.922 38.9943C285.453 39.3542 285.1 39.8371 284.863 40.4432C284.631 41.0492 284.515 41.7216 284.515 42.4602C284.515 43.2178 284.634 43.8878 284.87 44.4702C285.112 45.0478 285.467 45.5024 285.936 45.8338C286.409 46.1605 286.996 46.3239 287.697 46.3239ZM295.538 48V37.0909H297.214V48H295.538ZM296.39 35.2727C296.064 35.2727 295.782 35.1615 295.545 34.9389C295.313 34.7164 295.197 34.4489 295.197 34.1364C295.197 33.8239 295.313 33.5563 295.545 33.3338C295.782 33.1113 296.064 33 296.39 33C296.717 33 296.996 33.1113 297.228 33.3338C297.465 33.5563 297.583 33.8239 297.583 34.1364C297.583 34.4489 297.465 34.7164 297.228 34.9389C296.996 35.1615 296.717 35.2727 296.39 35.2727ZM308.011 39.5341L306.506 39.9602C306.411 39.7093 306.271 39.4654 306.087 39.2287C305.907 38.9872 305.661 38.7884 305.348 38.6321C305.036 38.4759 304.635 38.3977 304.148 38.3977C303.48 38.3977 302.924 38.5516 302.479 38.8594C302.038 39.1624 301.818 39.5483 301.818 40.017C301.818 40.4337 301.97 40.7628 302.273 41.0043C302.576 41.2457 303.049 41.447 303.693 41.608L305.312 42.0057C306.288 42.2424 307.015 42.6046 307.493 43.0923C307.971 43.5753 308.21 44.1979 308.21 44.9602C308.21 45.5852 308.03 46.1439 307.67 46.6364C307.315 47.1288 306.818 47.517 306.179 47.8011C305.54 48.0852 304.796 48.2273 303.949 48.2273C302.836 48.2273 301.915 47.9858 301.186 47.5028C300.457 47.0199 299.995 46.3144 299.801 45.3864L301.392 44.9886C301.544 45.5758 301.83 46.0161 302.251 46.3097C302.678 46.6032 303.234 46.75 303.92 46.75C304.702 46.75 305.322 46.5843 305.781 46.2528C306.245 45.9167 306.477 45.5142 306.477 45.0455C306.477 44.6667 306.345 44.3494 306.08 44.0938C305.814 43.8333 305.407 43.6392 304.858 43.5114L303.04 43.0852C302.041 42.8485 301.307 42.4815 300.838 41.9844C300.374 41.4825 300.142 40.8551 300.142 40.1023C300.142 39.4867 300.315 38.9422 300.661 38.4688C301.011 37.9953 301.487 37.6236 302.088 37.3537C302.694 37.0838 303.381 36.9489 304.148 36.9489C305.227 36.9489 306.075 37.1856 306.69 37.6591C307.311 38.1326 307.751 38.7576 308.011 39.5341ZM315.478 37.0909V38.5114H309.824V37.0909H315.478ZM311.472 34.4773H313.148V44.875C313.148 45.3485 313.217 45.7036 313.354 45.9403C313.496 46.1723 313.676 46.3286 313.894 46.4091C314.116 46.4848 314.351 46.5227 314.597 46.5227C314.782 46.5227 314.933 46.5133 315.051 46.4943C315.17 46.4706 315.265 46.4517 315.336 46.4375L315.676 47.9432C315.563 47.9858 315.404 48.0284 315.201 48.071C314.997 48.1184 314.739 48.142 314.426 48.142C313.953 48.142 313.489 48.0402 313.034 47.8366C312.585 47.633 312.211 47.3229 311.912 46.9062C311.619 46.4896 311.472 45.964 311.472 45.3295V34.4773ZM322.456 48.2273C321.404 48.2273 320.498 47.9953 319.735 47.5312C318.978 47.0625 318.393 46.4091 317.981 45.571C317.574 44.7282 317.37 43.7481 317.37 42.6307C317.37 41.5133 317.574 40.5284 317.981 39.6761C318.393 38.8191 318.966 38.1515 319.7 37.6733C320.439 37.1903 321.3 36.9489 322.285 36.9489C322.853 36.9489 323.414 37.0436 323.968 37.233C324.522 37.4223 325.027 37.7301 325.481 38.1562C325.936 38.5777 326.298 39.1364 326.568 39.8324C326.838 40.5284 326.973 41.3854 326.973 42.4034V43.1136H318.564V41.6648H325.268C325.268 41.0492 325.145 40.5 324.899 40.017C324.657 39.5341 324.312 39.1529 323.862 38.8736C323.417 38.5942 322.891 38.4545 322.285 38.4545C321.618 38.4545 321.04 38.6203 320.552 38.9517C320.069 39.2784 319.698 39.7045 319.437 40.2301C319.177 40.7557 319.047 41.3191 319.047 41.9205V42.8864C319.047 43.7102 319.189 44.4086 319.473 44.9815C319.761 45.5497 320.162 45.983 320.673 46.2812C321.184 46.5748 321.779 46.7216 322.456 46.7216C322.896 46.7216 323.294 46.66 323.649 46.5369C324.009 46.4091 324.319 46.2197 324.579 45.9688C324.84 45.7131 325.041 45.3958 325.183 45.017L326.802 45.4716C326.632 46.0208 326.345 46.5038 325.943 46.9205C325.54 47.3324 325.043 47.6544 324.451 47.8864C323.859 48.1136 323.194 48.2273 322.456 48.2273ZM329.522 48V37.0909H331.142V38.7386H331.255C331.454 38.1989 331.814 37.7609 332.335 37.4247C332.856 37.0885 333.443 36.9205 334.096 36.9205C334.219 36.9205 334.373 36.9228 334.558 36.9276C334.743 36.9323 334.882 36.9394 334.977 36.9489V38.6534C334.92 38.6392 334.79 38.6179 334.586 38.5895C334.387 38.5563 334.177 38.5398 333.954 38.5398C333.424 38.5398 332.95 38.651 332.534 38.8736C332.122 39.0914 331.795 39.3944 331.554 39.7827C331.317 40.1662 331.199 40.6042 331.199 41.0966V48H329.522Z" fill="#4461F2"/>
</g>
<defs>
<filter id="filter0_d_1_410" x="203" y="0" width="189" height="102" filterUnits="userSpaceOnUse" color-interpolation-filters="sRGB">
<feFlood flood-opacity="0" result="BackgroundImageFix"/>
<feColorMatrix in="SourceAlpha" type="matrix" values="0 0 0 0 0 0 0 0 0 0 0 0 0 0 0 0 0 0 127 0" result="hardAlpha"/>
<feOffset dy="10"/>
<feGaussianBlur stdDeviation="15"/>
<feComposite in2="hardAlpha" operator="out"/>
<feColorMatrix type="matrix" values="0 0 0 0 0.266667 0 0 0 0 0.380392 0 0 0 0 0.94902 0 0 0 0.05 0"/>
<feBlend mode="normal" in2="BackgroundImageFix" result="effect1_dropShadow_1_410"/>
<feBlend mode="normal" in="SourceGraphic" in2="effect1_dropShadow_1_410" result="shape"/>
</filter>
</defs>
</svg>
